<svg style="position: absolute; width: 0; height: 0; overflow: hidden;" version="1.1" xmlns="http://www.w3.org/2000/svg" xmlns:xlink="http://www.w3.org/1999/xlink">
<defs>
<symbol id="icon-wh-logo" viewBox="0 0 94 32">
<title>wh-logo</title>
<path fill="#616161" style="fill: var(--color1, #616161)" d="M44.285 22.15h1.934v1.768h-1.934v4.76c0 0.894 0.223 1.116 1.115 1.116 0.28 0 0.541-0.018 0.819-0.074v2.063c-0.446 0.075-1.022 0.093-1.541 0.093-1.62 0-3.034-0.372-3.034-2.287v-5.672h-1.598v-1.768h1.598v-1.038l2.641-2.633v3.67z"></path>
<path fill="#616161" style="fill: var(--color1, #616161)" d="M14.163 21.828c3.029 0 4.983 2.010 4.983 5.078 0 3.050-1.953 5.060-4.983 5.060-3.013 0-4.965-2.010-4.965-5.060 0-3.068 1.952-5.078 4.965-5.078zM14.163 29.975c1.801 0 2.343-1.546 2.343-3.069 0-1.543-0.542-3.085-2.343-3.085-1.787 0-2.326 1.542-2.326 3.085 0 1.523 0.54 3.069 2.326 3.069z"></path>
<path fill="#616161" style="fill: var(--color1, #616161)" d="M19.889 31.756h2.641v-13.277h-2.641z"></path>
<path fill="#616161" style="fill: var(--color1, #616161)" d="M23.366 20.656h2.643v-2.176h-2.643v2.176zM23.366 31.756h2.643v-9.614h-2.643v9.614z"></path>
<path fill="#616161" style="fill: var(--color1, #616161)" d="M33.492 25.477c-0.166-1.080-0.853-1.656-1.95-1.656-1.693 0-2.25 1.711-2.25 3.123 0 1.377 0.538 3.031 2.193 3.031 1.228 0 1.935-0.782 2.101-1.953h2.549c-0.334 2.548-2.101 3.944-4.63 3.944-2.901 0-4.854-2.047-4.854-4.929 0-2.995 1.785-5.209 4.909-5.209 2.268 0 4.353 1.193 4.518 3.648h-2.585z"></path>
<path fill="#616161" style="fill: var(--color1, #616161)" d="M36.826 20.656h2.642v-2.176h-2.642v2.176zM36.826 31.756h2.642v-9.614h-2.642v9.614z"></path>
<path fill="#616161" style="fill: var(--color1, #616161)" d="M51.13 21.828c3.031 0 4.983 2.010 4.983 5.078 0 3.050-1.952 5.060-4.983 5.060-3.013 0-4.965-2.010-4.965-5.060 0-3.068 1.952-5.078 4.965-5.078zM51.13 29.975c1.803 0 2.344-1.546 2.344-3.069 0-1.543-0.542-3.085-2.344-3.085-1.786 0-2.325 1.542-2.325 3.085 0 1.523 0.539 3.069 2.325 3.069z"></path>
<path fill="#616161" style="fill: var(--color1, #616161)" d="M56.727 22.090h2.511v1.786h0.037c0.484-1.209 1.785-2.048 3.067-2.048 0.186 0 0.41 0.040 0.579 0.095v2.454c-0.243-0.056-0.635-0.091-0.949-0.091-1.935 0-2.603 1.394-2.603 3.086v4.331h-2.642v-9.614z"></path>
<path fill="#616161" style="fill: var(--color1, #616161)" d="M5.801 25.922c-1.505-0.354-2.994-0.484-2.994-1.433 0-0.781 0.874-0.893 1.468-0.893 0.911 0 1.659 0.265 1.785 1.187h2.514c-0.258-2.268-2.159-2.955-4.224-2.955s-4.184 0.633-4.184 3.089c0 1.693 1.524 2.231 3.051 2.565 1.895 0.41 2.993 0.688 2.993 1.487 0 0.932-0.967 1.228-1.729 1.228-0.893 0-1.727-0.343-1.96-1.164h-2.532c0.337 2.193 2.382 2.932 4.475 2.932 2.194 0 4.386-0.82 4.386-3.35 0-1.785-1.506-2.341-3.049-2.695z"></path>
<path fill="#616161" style="fill: var(--color1, #616161)" d="M68.978 25.922c-1.504-0.354-2.994-0.484-2.994-1.433 0-0.781 0.875-0.893 1.47-0.893 0.909 0 1.657 0.265 1.785 1.187h2.514c-0.259-2.268-2.16-2.955-4.225-2.955-2.063 0-4.184 0.633-4.184 3.089 0 1.693 1.526 2.231 3.053 2.565 1.894 0.41 2.992 0.688 2.992 1.487 0 0.932-0.966 1.228-1.73 1.228-0.891 0-1.727-0.343-1.958-1.164h-2.533c0.337 2.193 2.381 2.932 4.474 2.932 2.195 0 4.388-0.82 4.388-3.35 0-1.785-1.506-2.341-3.050-2.695z"></path>
<path fill="#b01c33" style="fill: var(--color2, #b01c33)" d="M5.276 4.66c-0.857 0-1.836 0.405-2.517 1.219v-5.853l-2.771 2.833v11.685h2.771v-6.918c0.319-0.604 0.871-0.881 1.698-0.881 1.229 0 1.695 0.782 1.695 2.364v3.022c0.017 1.334 1.103 2.411 2.442 2.411v0.001h0.203v-5.917c0-2.382-0.709-3.967-3.521-3.967z"></path>
<path fill="#b01c33" style="fill: var(--color2, #b01c33)" d="M9.687 7.859c0.148-2.471 2.36-3.215 4.517-3.215 1.915 0 4.219 0.428 4.219 2.732v5c0 0.875 0.093 1.748 0.335 2.139h-2.676c-0.092-0.299-0.168-0.615-0.186-0.931-0.838 0.876-2.064 1.191-3.235 1.191-1.821 0-3.271-0.911-3.271-2.882 0-2.174 1.635-2.696 3.271-2.917 1.617-0.243 3.122-0.186 3.122-1.265 0-1.133-0.781-1.3-1.709-1.3-1.003 0-1.654 0.408-1.748 1.449h-2.639zM15.784 9.811c-0.446 0.389-1.375 0.409-2.194 0.558-0.816 0.167-1.559 0.447-1.559 1.412 0 0.986 0.762 1.227 1.616 1.227 2.065 0 2.138-1.634 2.138-2.212v-0.985z"></path>
<path fill="#b01c33" style="fill: var(--color2, #b01c33)" d="M19.273 4.904h2.508v1.784h0.038c0.484-1.209 1.786-2.045 3.066-2.045 0.186 0 0.41 0.036 0.578 0.093v2.453c-0.241-0.056-0.632-0.091-0.948-0.091-1.933 0-2.603 1.393-2.603 3.084v4.332h-2.638v-9.61z"></path>
<path fill="#b01c33" style="fill: var(--color2, #b01c33)" d="M26.055 4.904h2.509v1.784h0.038c0.483-1.209 1.786-2.045 3.068-2.045 0.185 0 0.407 0.036 0.577 0.093v2.453c-0.243-0.056-0.634-0.091-0.949-0.091-1.933 0-2.602 1.393-2.602 3.084v4.332h-2.641v-9.61z"></path>
<path fill="#b01c33" style="fill: var(--color2, #b01c33)" d="M32.834 3.417h2.639v-2.176h-2.639v2.176zM32.834 14.514h2.639v-9.61h-2.639v9.61z"></path>
<path fill="#b01c33" style="fill: var(--color2, #b01c33)" d="M36.065 4.904h2.509v1.336h0.055c0.67-1.077 1.822-1.597 2.938-1.597 2.807 0 3.513 1.581 3.513 3.959v5.911h-2.64v-5.429c0-1.579-0.464-2.36-1.691-2.36-1.432 0-2.044 0.8-2.044 2.751v5.038h-2.64v-9.61z"></path>
<path fill="#b01c33" style="fill: var(--color2, #b01c33)" d="M55.134 13.9c0 1.581-0.557 4.258-4.982 4.258-1.896 0-4.108-0.892-4.237-3.087h2.621c0.241 0.987 1.042 1.321 1.969 1.321 1.468 0 2.138-1.005 2.119-2.379v-1.264h-0.036c-0.574 1.003-1.729 1.488-2.881 1.488-2.881 0-4.108-2.195-4.108-4.833 0-2.492 1.431-4.759 4.126-4.759 1.267 0 2.232 0.428 2.863 1.543h0.036v-1.282h2.51v8.995zM52.624 9.589c0-1.562-0.538-2.957-2.249-2.957-1.486 0-2.137 1.303-2.137 2.733 0 1.376 0.52 2.881 2.137 2.881 1.505 0 2.249-1.282 2.249-2.656v0z"></path>
<path fill="#b01c33" style="fill: var(--color2, #b01c33)" d="M59.856 4.904h1.931v1.765h-1.931v4.759c0 0.893 0.222 1.115 1.113 1.115 0.281 0 0.54-0.018 0.817-0.074v2.062c-0.447 0.075-1.021 0.093-1.541 0.093-1.618 0-3.031-0.371-3.031-2.286v-5.669h-1.596v-1.765h1.596v-1.039l2.641-2.63v3.669z"></path>
<path fill="#b01c33" style="fill: var(--color2, #b01c33)" d="M66.602 4.644c3.031 0 4.98 2.008 4.98 5.075 0 3.048-1.949 5.056-4.98 5.056-3.010 0-4.961-2.007-4.961-5.056 0-3.067 1.951-5.075 4.961-5.075zM66.602 12.784c1.803 0 2.342-1.541 2.342-3.065 0-1.544-0.539-3.087-2.342-3.087-1.783 0-2.325 1.543-2.325 3.087 0 1.524 0.542 3.065 2.325 3.065z"></path>
<path fill="#b01c33" style="fill: var(--color2, #b01c33)" d="M72.178 4.904h2.508v1.336h0.058c0.667-1.077 1.819-1.597 2.935-1.597 2.807 0 3.513 1.581 3.513 3.959v5.911h-2.64v-5.429c0-1.579-0.464-2.36-1.691-2.36-1.432 0-2.045 0.8-2.045 2.751v5.038h-2.639v-9.61z"></path>
<path fill="#b01c33" style="fill: var(--color2, #b01c33)" d="M91.579 14.468h2.664v-2.665h-2.664z"></path>
<path fill="#b01c33" style="fill: var(--color2, #b01c33)" d="M91.579 7.971h2.664v-2.666h-2.664z"></path>
<path fill="#b01c33" style="fill: var(--color2, #b01c33)" d="M87.474 8.732c-1.503-0.352-2.993-0.484-2.993-1.431 0-0.78 0.873-0.891 1.47-0.891 0.895 0 1.632 0.257 1.776 1.143h2.515c-0.278-2.231-2.166-2.91-4.218-2.91-2.063 0-4.182 0.632-4.182 3.087 0 1.691 1.527 2.229 3.049 2.564 1.897 0.408 2.991 0.688 2.991 1.487 0 0.929-0.967 1.226-1.729 1.226-0.906 0-1.755-0.352-1.973-1.204h-2.521c0.317 2.225 2.372 2.971 4.477 2.971 2.192 0 4.388-0.818 4.388-3.345 0-1.784-1.507-2.344-3.051-2.696z"></path>
</symbol>
</defs>
</svg>
